<?xml version="1.0" encoding="utf-8"?>
<!-- Generator: Adobe Illustrator 22.1.0, SVG Export Plug-In . SVG Version: 6.00 Build 0)  -->
<svg version="1.1" id="Capa_1" xmlns="http://www.w3.org/2000/svg" xmlns:xlink="http://www.w3.org/1999/xlink" x="0px" y="0px"
	 viewBox="0 0 90 90" style="enable-background:new 0 0 90 90;" xml:space="preserve">
<style type="text/css">
	.st0{fill:#C8DAEA;}
	.st1{fill:#A9C9DD;}
	.st2{fill:url(#SVGID_1_);}
</style>
<path class="st0" d="M34.3,76.7c-2.6,0-2.1-1-3-3.4l-7.5-24.8l58-34.4"/>
<path class="st1" d="M34.3,76.7c2,0,2.9-0.9,4-2l10.5-10.3l-13.2-7.9"/>
<linearGradient id="SVGID_1_" gradientUnits="userSpaceOnUse" x1="32.7892" y1="57.5741" x2="32.9154" y2="57.3332" gradientTransform="matrix(130.4927 0 0 -109.4496 -4224.3418 6343.8076)">
	<stop  offset="0" style="stop-color:#EFF7FC"/>
	<stop  offset="1" style="stop-color:#FFFFFF"/>
</linearGradient>
<path class="st2" d="M35.7,56.5l31.9,23.5c3.6,2,6.3,1,7.2-3.4l13-61.1c1.3-5.3-2-7.7-5.5-6.2L6,38.8c-5.2,2.1-5.2,5-0.9,6.3
	l19.5,6.1l45.3-28.6c2.1-1.3,4.1-0.6,2.5,0.8"/>
</svg>
